<?xml version="1.0" encoding="utf-8"?>
<!-- Generator: Adobe Illustrator 15.0.0, SVG Export Plug-In . SVG Version: 6.00 Build 0)  -->
<!DOCTYPE svg PUBLIC "-//W3C//DTD SVG 1.1//EN" "http://www.w3.org/Graphics/SVG/1.1/DTD/svg11.dtd">
<svg version="1.1" id="Layer_1" xmlns="http://www.w3.org/2000/svg" xmlns:xlink="http://www.w3.org/1999/xlink" x="0px" y="0px"
	 width="320px" height="320px" viewBox="0 0 320 320" enable-background="new 0 0 320 320" xml:space="preserve">
<circle fill="none" stroke="#B65534" stroke-miterlimit="10" cx="-5167.629" cy="76.549" r="61.019"/>
<g>
	
		<circle fill="none" stroke="#B65534" stroke-miterlimit="10" stroke-dasharray="2.0095,2.0095" cx="-5167.629" cy="76.549" r="65.25"/>
</g>
<rect x="-4866.157" y="-50" fill="#A0220A" width="28" height="23"/>
<rect x="-4830.157" y="-49" fill="#5F7884" width="25" height="23"/>
<rect x="-4797.157" y="-49" fill="#B65534" width="27" height="24"/>
<rect x="-4764.157" y="-48" fill="#6F4B52" width="31" height="25"/>
<polygon fill="#A0220A" points="-4759.157,72 -4815.379,72 -4775.396,32.017 -4783.174,24.238 -4823.157,64.222 -4823.157,8 
	-4834.157,8 -4834.157,64.347 -4874.391,24.113 -4882.168,31.891 -4842.061,72 -4899.157,72 -4899.157,83 -4841.937,83 
	-4882.169,123.233 -4874.392,131.012 -4834.157,90.778 -4834.157,148 -4823.157,148 -4823.157,90.903 -4783.174,130.887 
	-4775.396,123.108 -4815.504,83 -4759.157,83 "/>
<polygon fill="#5F7884" points="-4599.157,73 -4655.379,73 -4615.396,33.017 -4623.174,25.238 -4663.157,65.222 -4663.157,9 
	-4674.157,9 -4674.157,65.347 -4714.391,25.113 -4722.169,32.891 -4682.061,73 -4739.157,73 -4739.157,84 -4681.937,84 
	-4722.169,124.233 -4714.393,132.012 -4674.157,91.778 -4674.157,149 -4663.157,149 -4663.157,91.903 -4623.175,131.887 
	-4615.396,124.108 -4655.504,84 -4599.157,84 "/>
<polygon fill="#B65534" points="-4926.157,73 -4982.379,73 -4942.396,33.017 -4950.174,25.238 -4990.157,65.222 -4990.157,9 
	-5001.157,9 -5001.157,65.347 -5041.391,25.113 -5049.169,32.891 -5009.061,73 -5066.157,73 -5066.157,84 -5008.937,84 
	-5049.169,124.233 -5041.393,132.012 -5001.157,91.778 -5001.157,149 -4990.157,149 -4990.157,91.903 -4950.175,131.887 
	-4942.396,124.108 -4982.504,84 -4926.157,84 "/>
<path fill="#B65534" d="M-5167.884,23.34c-29.387,0-53.208,23.822-53.208,53.208c0,29.385,23.821,53.207,53.208,53.207
	s53.208-23.822,53.208-53.207C-5114.675,47.162-5138.497,23.34-5167.884,23.34z M-5158.21,80l25.336,25.068l-4.841,4.529
	l-25.442-25.4V121h-7V84.118l-25.512,25.765l-4.771-4.734L-5175.001,80h-36.156v-7h36.077l-25.627-25.887l5.041-5.347l25.51,25.56
	V33h7v34.247l25.443-25.198l5.106,5.145L-5158.131,73h34.974v7H-5158.21z"/>
<polygon fill="#A0220A" points="-5298.823,58.436 -5295.065,70 -5282.906,70 -5292.743,77.229 -5288.986,88.833 -5298.823,81.706 
	-5308.661,88.863 -5304.903,77.223 -5314.741,70 -5302.581,70 "/>
<polygon fill="#5F7884" points="-5382.823,58.436 -5379.065,70 -5366.906,70 -5376.743,77.229 -5372.986,88.833 -5382.823,81.706 
	-5392.661,88.863 -5388.903,77.223 -5398.741,70 -5386.581,70 "/>
<polygon fill="#B65534" points="-5451.823,58.436 -5448.065,70 -5435.906,70 -5445.743,77.229 -5441.986,88.833 -5451.823,81.706 
	-5461.661,88.863 -5457.903,77.223 -5467.741,70 -5455.581,70 "/>
<polygon fill="#6F4B52" points="-5511.823,58.436 -5508.065,70 -5495.906,70 -5505.743,77.229 -5501.986,88.833 -5511.823,81.706 
	-5521.661,88.863 -5517.903,77.223 -5527.741,70 -5515.581,70 "/>
<image overflow="visible" enable-background="new    " width="400" height="509" xlink:href="4721ABB4.png"  transform="matrix(0.273 0 0 0.273 -5394.8164 93.4727)">
</image>
<g>
	<circle fill="none" stroke="#B65534" stroke-miterlimit="10" cx="-2870.629" cy="83.549" r="61.019"/>
	<g>
		
			<circle fill="none" stroke="#B65534" stroke-miterlimit="10" stroke-dasharray="2.0095,2.0095" cx="-2870.628" cy="83.549" r="65.25"/>
	</g>
	<path fill="#B65534" d="M-2870.885,30.34c-29.386,0-53.208,23.822-53.208,53.209c0,29.385,23.822,53.207,53.208,53.207
		c29.388,0,53.209-23.822,53.209-53.207C-2817.676,54.162-2841.497,30.34-2870.885,30.34z M-2861.21,87l25.336,25.068l-4.842,4.529
		l-25.441-25.4V128h-7V91.118l-25.512,25.765l-4.771-4.734L-2878.001,87h-36.156v-7h36.076l-25.627-25.887l5.041-5.347l25.51,25.56
		V40h7v34.247l25.443-25.198l5.106,5.145L-2861.132,80h34.975v7H-2861.21z"/>
</g>
<path fill="#FFFFFF" d="M-4427.323,75.822c-1.288,1.186-3.334,2.515-6.129,3.983c-2.806,1.475-5.938,2.494-9.404,3.063
	c-0.172,0.647-0.35,1.252-0.534,1.801c-0.18,0.556-0.396,1.144-0.645,1.764c-1.314,3.239-3.124,6.645-5.427,10.2
	c-2.295,3.565-5.03,7.016-8.188,10.364c-3.162,3.345-6.703,6.497-10.643,9.433c-3.938,2.945-8.191,5.413-12.783,7.414
	c-4.593,2.001-9.466,3.441-14.626,4.312c-5.16,0.871-10.542,0.889-16.133,0.053c-6.468-1.104-12.688-2.859-18.626-5.268
	c-2.546-1.036-5.144-2.242-7.766-3.625c-2.619-1.389-5.167-3.001-7.606-4.847c-2.438-1.843-4.745-3.922-6.899-6.237
	s-4.005-4.907-5.538-7.783c5.682,3.296,11.56,5.126,17.658,5.487c6.1,0.361,12.021-0.217,17.768-1.754
	c-1.004-0.409-2.292-1.036-3.868-1.907c-1.586-0.863-3.127-2.167-4.622-3.895c-1.502-1.73-2.8-3.993-3.92-6.78
	c-1.11-2.791-1.669-6.292-1.663-10.512c0.401,0.341,0.996,0.691,1.795,1.057c0.792,0.369,1.668,0.706,2.631,1.005
	c0.953,0.293,1.895,0.568,2.837,0.814c0.931,0.241,1.78,0.429,2.529,0.556c-3.512-2.861-5.982-5.777-7.43-8.745
	c-1.451-2.97-2.272-5.754-2.476-8.353c-0.212-2.595-0.05-4.918,0.462-6.958c0.512-2.037,0.991-3.596,1.431-4.673
	c0.75,1.026,1.949,2.273,3.599,3.753c1.646,1.474,3.256,2.49,4.836,3.044c-2.096-3.908-3.339-7.45-3.719-10.615
	c-0.374-3.165-0.209-6.017,0.512-8.559c0.713-2.542,1.814-4.856,3.293-6.951c1.483-2.095,3.123-4.036,4.927-5.818
	c2.299,6.507,4.946,12.103,7.957,16.784c2.997,4.678,6.073,8.599,9.239,11.776c3.157,3.171,6.292,5.699,9.39,7.584
	c3.1,1.886,5.88,3.333,8.351,4.331c0.789-3.271,1.961-6.216,3.515-8.823c1.551-2.602,3.47-4.795,5.764-6.556
	c2.292-1.762,4.895-3.025,7.801-3.773c2.911-0.745,6.089-0.921,9.52-0.521c4.216,0.459,7.828,1.967,10.833,4.537
	c3.004,2.567,5.154,5.777,6.47,9.636c1.107,0.363,2.946,0.704,5.514,1.028c2.562,0.316,6.006,0.143,10.326-0.532
	c-0.553,0.681-1.299,1.477-2.255,2.384c-0.953,0.917-2.054,1.802-3.29,2.644c-1.234,0.842-2.622,1.587-4.146,2.228
	c-1.518,0.641-3.11,1.028-4.784,1.157c1.254,0.238,2.634,0.486,4.151,0.743c1.28,0.159,2.797,0.301,4.546,0.429
	C-4431.051,75.816-4429.228,75.862-4427.323,75.822z"/>
<g>
	<path fill="#B65534" d="M270.215,244.359h-47.682l-7.334,44.012h-57.583l7.335-44.012h-39.979l-7.333,44.012H60.054l7.335-44.012
		H38.415V173.57h41.08l5.134-28.607H49.787V74.174h46.947l7.336-42.546h57.583l-7.336,42.546h39.979l7.332-42.546h57.586
		l-7.336,42.546h29.709v70.789h-41.812l-5.136,28.607h35.576L270.215,244.359L270.215,244.359z M134.143,176.506h45.113
		l5.869-34.478h-45.112L134.143,176.506z"/>
</g>
</svg>
